<svg width="498" height="157" viewBox="0 0 498 157" fill="none" xmlns="http://www.w3.org/2000/svg">
<path d="M18.7677 88H6C69.8384 138.95 137.933 111.352 164 91.1844C97.6081 133.219 39.5152 106.576 18.7677 88Z" fill="#F0C446" stroke="#F0C446"/>
<path d="M49.6066 107.442V21.3053L84.9843 9L84.5545 38.2251M83.4461 113.595L84.5545 38.2251M84.5545 38.2251L115.748 48.9922V112.057" stroke="#F0C446" stroke-width="9"/>
<path d="M426.879 44.7861L417.382 47.6532V101.769H426.879V59.1214C445.515 42.0624 452.682 50.4605 453.937 56.7919V101.769H463.075V56.0752C458.918 36.8659 437.212 45.8016 426.879 52.6705V44.7861Z" fill="#F0C446"/>
<path fill-rule="evenodd" clip-rule="evenodd" d="M372.942 60.1965L372.92 60.1753C372.064 61.5875 370.548 62.5261 368.821 62.5261C366.149 62.5261 363.983 60.2797 363.983 57.5087C363.983 55.7662 364.839 54.2312 366.139 53.3318C381.754 33.7884 408.24 47.8856 407.526 61.2717V101.769C400.358 101.769 398.089 95.5568 397.85 92.4509C389.069 100.873 379.931 102.127 374.555 101.41C369.179 100.694 359.324 96.2139 360.22 85.6416C361.132 74.8765 380.827 68.4393 398.208 63.2427C398.351 58.6555 396.715 55.1194 395.878 53.9248C386.634 42.3267 376.758 51.5417 373.499 58.7922C373.385 59.2394 373.214 59.6621 372.993 60.0513C372.975 60.0998 372.959 60.1483 372.942 60.1965ZM398.029 67.3642V86.3584C393.967 91.8536 382.618 101.41 373.121 94.2428C368.642 90.3006 366.133 80.6243 377.78 75.0694C391.749 68.4071 397.207 67.5006 398.007 67.3678L398.029 67.3642Z" fill="#F0C446"/>
<path d="M308.971 28.1214V101.59H318.647V58.9422C337.713 43.0301 344.511 50.7591 345.526 56.6127V101.59H354.306V54.104C349.576 38.1919 328.563 46.5183 318.647 52.6705V24L308.971 28.1214Z" fill="#F0C446"/>
<path fill-rule="evenodd" clip-rule="evenodd" d="M183 24.896V101.948H193.931V65.5723H204.324C235.981 118.493 331.334 202.08 459.491 113.058H454.116C406.63 146.447 292.844 183.695 217.584 65.5723C238.012 62.3469 248.942 31.1677 217.584 24.896H183ZM193.572 28.3006V61.6301H212.566C229.231 59.4798 234.249 32.422 212.566 28.3006H193.572Z" fill="#F0C446"/>
<path fill-rule="evenodd" clip-rule="evenodd" d="M253.422 72.7398H299.474C302.879 39.4104 248.225 30.4509 244.642 72.0231C243.03 90.7225 271.162 118.971 297.324 90.6589L294.636 88.867C283.884 101.41 257.006 104.277 253.422 72.7398ZM290.156 65.9306C290.156 66.7199 290.105 67.4974 290.007 68.2601H254.108C254.01 67.4974 253.959 66.7199 253.959 65.9306C253.959 55.9352 262.062 47.8324 272.058 47.8324C282.053 47.8324 290.156 55.9352 290.156 65.9306Z" fill="#F0C446"/>
<path d="M483.503 44.7861L473.647 47.6532V101.59H483.503V44.7861Z" fill="#F0C446"/>
<path d="M475.081 39.2312C476.694 34.8709 482.535 25.8278 493 24.5376C491.865 28.9576 486.693 38.0844 475.081 39.2312Z" fill="#F0C446"/>
</svg>
